<?xml version="1.0" encoding="UTF-8" standalone="no"?>
<!-- Created with Inkscape (http://www.inkscape.org/) -->

<svg
   xmlns:dc="http://purl.org/dc/elements/1.1/"
   xmlns:cc="http://creativecommons.org/ns#"
   xmlns:rdf="http://www.w3.org/1999/02/22-rdf-syntax-ns#"
   xmlns:svg="http://www.w3.org/2000/svg"
   xmlns="http://www.w3.org/2000/svg"
   xmlns:sodipodi="http://sodipodi.sourceforge.net/DTD/sodipodi-0.dtd"
   xmlns:inkscape="http://www.inkscape.org/namespaces/inkscape"
   id="svg2985"
   version="1.1"
   inkscape:version="0.48.5 r10040"
   width="273"
   height="264"
   sodipodi:docname="tree6.png">
  <metadata
     id="metadata2991">
    <rdf:RDF>
      <cc:Work
         rdf:about="">
        <dc:format>image/svg+xml</dc:format>
        <dc:type
           rdf:resource="http://purl.org/dc/dcmitype/StillImage" />
        <dc:title></dc:title>
      </cc:Work>
    </rdf:RDF>
  </metadata>
  <defs
     id="defs2989" />
  <sodipodi:namedview
     pagecolor="#ffffff"
     bordercolor="#666666"
     borderopacity="1"
     objecttolerance="10"
     gridtolerance="10"
     guidetolerance="10"
     inkscape:pageopacity="0"
     inkscape:pageshadow="2"
     inkscape:window-width="944"
     inkscape:window-height="1002"
     id="namedview2987"
     showgrid="false"
     inkscape:zoom="2.817144"
     inkscape:cx="142.96029"
     inkscape:cy="130.25271"
     inkscape:window-x="0"
     inkscape:window-y="0"
     inkscape:window-maximized="0"
     inkscape:current-layer="svg2985" />
  <path
     style="fill:#647c3a;stroke:#000000;stroke-width:0;stroke-linecap:butt;stroke-linejoin:miter;stroke-opacity:1;fill-opacity:1;stroke-miterlimit:4;stroke-dasharray:none"
     d="M 37.29031,66.76571 69.638531,34.417489 98.392505,68.562833 80.870552,30.373962 122.20439,18.69266 l 3.59425,10.333459 4.04352,-12.130583 36.84103,6.289932 -3.59424,33.696063 16.62339,-35.942467 30.55109,31.89894 -38.18887,50.319456 56.16011,-30.551099 14.82627,42.681679 -36.84103,10.78274 34.59462,0 -11.23202,51.6673 -31.44966,-15.27555 28.75398,22.01476 -30.5511,28.30469 -21.1162,-31.89894 9.88418,39.986 -43.13096,14.82627 -9.4349,-58.85579 -8.53634,59.75435 -45.826643,-13.02915 -4.043528,-8.08705 13.029145,-28.30469 -21.565481,23.81188 -30.101816,-28.30469 24.710446,-20.21764 -27.406131,10.78274 -9.884179,-44.92808 17.521953,-5.84066 -20.666919,-2.2464 11.681302,-41.333837 53.46442,38.188867 z"
     id="path3157"
     inkscape:connector-curvature="0" />
  <path
     style="fill:none;stroke:#000000;stroke-width:0;stroke-linecap:butt;stroke-linejoin:miter;stroke-opacity:1;stroke-miterlimit:4;stroke-dasharray:none"
     d="m 101.08819,30.823243 34.14534,79.971987 c 0,0 22.46405,-76.377741 22.01476,-74.580617 -0.44928,1.797123 -17.97123,79.073427 -17.97123,79.073427 l 58.85579,-54.362981 -48.52233,55.710821 28.75397,-14.82626 -31.89894,22.91332 57.50795,0 -57.50795,4.94209 38.63816,29.20325 -29.65254,-15.27555 21.1162,37.73959 -35.49319,-45.82664 5.84066,84.01552 -13.02915,-79.52271 -42.232398,66.04428 37.739588,-67.84141 -66.942843,56.60939"
     id="path3159"
     inkscape:connector-curvature="0" />
  <path
     style="fill:none;stroke:#000000;stroke-width:0;stroke-linecap:butt;stroke-linejoin:miter;stroke-opacity:1;stroke-miterlimit:4;stroke-dasharray:none"
     d="m 62.899318,194.81075 55.261542,-53.46442 -55.261542,20.66692 49.870172,-24.71045 -56.609385,11.23202 67.392125,-17.52195 -80.87055,-8.08705 52.116578,0 L 35.043906,108.54883 121.75511,122.92582 59.305071,50.142319 113.66805,104.5053 79.97199,52.388723 126.6972,113.9402 101.08819,31.272524"
     id="path3161"
     inkscape:connector-curvature="0"
     sodipodi:nodetypes="ccccccccccccccc" />
  <path
     style="opacity:0.6504425;fill:#000000;fill-opacity:1;stroke:#006600;stroke-width:0;stroke-linecap:round;stroke-linejoin:round;stroke-miterlimit:4;stroke-opacity:1;stroke-dasharray:none"
     d="m 139.62604,170.35874 c -2.80891,-17.21777 -5.23272,-31.44556 -5.38624,-31.61731 -0.15351,-0.17176 -5.8245,8.36782 -12.60218,18.97684 -6.77768,10.60901 -12.41119,19.20098 -12.51891,19.09326 -0.15542,-0.15542 15.34388,-28.45538 19.96917,-36.46145 0.86191,-1.4919 0.95488,-1.94246 0.48181,-2.33507 -0.45073,-0.37408 -5.132,3.35799 -20.26047,16.15234 -10.820866,9.15135 -19.759474,16.55365 -19.863575,16.44954 -0.1041,-0.1041 5.320228,-5.5146 12.054065,-12.02333 6.73384,-6.50873 13.40066,-12.96133 14.81517,-14.33911 4.7747,-4.65071 3.7712,-4.46708 -15.87599,2.90522 -9.724771,3.64906 -18.089089,6.71293 -18.587373,6.80859 -0.498286,0.0957 6.321832,-3.47426 15.155817,-7.93315 10.354726,-5.22647 16.061786,-8.3461 16.061786,-8.77976 0,-0.36998 -0.16307,-0.67269 -0.36239,-0.67269 -0.19931,0 -5.40536,1.01458 -11.56898,2.25463 -6.163625,1.24003 -11.496833,2.20011 -11.851576,2.1335 -0.354743,-0.0666 7.19918,-2.14262 16.786496,-4.61335 15.69402,-4.04447 18.55018,-4.9942 17.66908,-5.87531 -0.12162,-0.12161 -14.85493,-1.7072 -32.74069,-3.52352 l -32.519558,-3.30241 18.308194,-0.0513 c 15.567789,-0.0437 18.308194,-0.14768 18.308194,-0.69498 0,-0.78469 1.729836,-0.30301 -18.150473,-5.05405 -9.117895,-2.17902 -16.295156,-4.00957 -15.94947,-4.06789 0.345686,-0.0583 14.477602,2.19075 31.404258,4.99795 16.926655,2.8072 30.834745,5.05355 30.906865,4.99189 0.0721,-0.0617 -10.39051,-12.36116 -23.25028,-27.332231 C 87.19901,81.474485 76.677376,69.066872 76.677376,68.873079 c 0,-0.193794 8.238687,7.880676 18.308194,17.943267 13.20348,13.194414 18.47686,18.189744 18.91313,17.915884 0.45903,-0.28815 -1.68903,-3.92606 -8.90584,-15.082729 -5.230926,-8.086642 -9.428829,-14.784932 -9.328672,-14.885089 0.100156,-0.100156 7.001642,8.803383 15.336622,19.785644 10.71155,14.113634 15.34767,19.893634 15.81331,19.714954 0.36232,-0.13904 0.55998,-0.58267 0.43923,-0.98583 -0.12075,-0.40317 -4.68531,-15.159983 -10.14345,-32.792908 -5.45814,-17.632928 -9.8638,-32.238114 -9.79034,-32.455969 0.0735,-0.217855 6.29993,14.059506 13.83662,31.727469 7.53669,17.667965 13.90524,32.079988 14.15235,32.026718 0.2471,-0.0533 3.48192,-10.392 7.18849,-22.974969 3.70657,-12.582965 6.79216,-22.59971 6.85686,-22.259432 0.0647,0.340277 -2.4123,11.721186 -5.50447,25.290907 -3.09217,13.569724 -5.51568,24.778664 -5.38559,24.908764 0.1301,0.1301 1.29297,-0.78241 2.58415,-2.02778 6.64101,-6.40539 43.54652,-40.200122 43.71573,-40.030911 0.10822,0.108216 -7.63902,9.190046 -17.21608,20.181845 -20.99096,24.091786 -18.78529,21.422566 -18.19225,22.015606 0.3477,0.34769 2.87048,-0.74531 8.89207,-3.85253 4.62366,-2.38587 8.47853,-4.26607 8.56638,-4.17822 0.0879,0.0879 -3.32573,2.66149 -7.58573,5.71921 -4.26,3.05772 -9.26178,6.68213 -11.11506,8.05426 l -3.36961,2.49476 20.44228,0.22464 20.44228,0.22464 -20.21764,1.7306 c -11.1197,0.95184 -20.30188,1.81108 -20.40484,1.90945 -0.23321,0.2228 -2.17647,-1.29049 14.92329,11.62133 8.10485,6.11987 14.63589,11.22724 14.51341,11.34971 -0.12247,0.12247 -4.59624,-2.03565 -9.94171,-4.79583 -5.34548,-2.76018 -9.88997,-4.95642 -10.09888,-4.88054 -0.20891,0.0759 3.06086,6.26847 7.26616,13.76131 4.20529,7.49285 7.56763,13.70172 7.47186,13.79749 -0.0958,0.0958 -6.53389,-8.04094 -14.30693,-18.08157 -14.06214,-18.16442 -14.13344,-18.24689 -14.25964,-16.49317 -0.0698,0.96939 0.8852,16.20667 2.12212,33.86063 1.23693,17.65396 2.20149,32.14557 2.14347,32.20359 -0.058,0.058 -2.40369,-13.98178 -5.21261,-31.19954 l 0,0 z"
     id="path3163"
     inkscape:connector-curvature="0" />
  <path
     style="opacity:0.6504425;fill:#000000;fill-opacity:1;stroke:#006600;stroke-width:0;stroke-linecap:round;stroke-linejoin:round;stroke-miterlimit:4;stroke-opacity:1;stroke-dasharray:none"
     d="m 140.11301,171.57647 c -1.95368,-11.70991 -3.71136,-21.35434 -3.90597,-21.43209 -0.1946,-0.0777 -0.25308,-0.40389 -0.12994,-0.72478 0.1923,-0.50112 -0.5926,-6.04466 -1.46486,-10.34581 l -0.26926,-1.32776 -0.84261,1.04057 c -0.46343,0.57232 -0.8426,1.32145 -0.8426,1.66472 0,0.34329 -0.18084,0.62415 -0.40187,0.62415 -0.22102,0 -4.09076,5.66625 -8.59941,12.59167 -4.50865,6.92542 -8.29871,12.49051 -8.42236,12.36686 -0.12364,-0.12365 3.13956,-6.28546 7.25157,-13.69291 4.11201,-7.40745 7.47638,-13.76931 7.47638,-14.13746 0,-1.50362 -1.07433,-1.0707 -4.60227,1.85455 -2.04018,1.69164 -9.02718,7.48787 -15.52667,12.88051 -6.49948,5.39262 -11.914088,9.70793 -12.032454,9.58957 -0.118365,-0.11837 4.542324,-4.81903 10.357084,-10.44593 12.74468,-12.33291 13.06025,-12.94116 5.3745,-10.35903 -2.45396,0.82444 -8.90187,3.14139 -14.328692,5.14877 -5.42682,2.00739 -10.037139,3.59306 -10.245154,3.52372 -0.208014,-0.0693 5.192449,-3.02285 12.001026,-6.56336 15.2344,-7.922 15.90282,-8.84902 4.74147,-6.57584 -9.410724,1.91663 -7.90395,1.20282 5.03866,-2.38698 11.19745,-3.10576 13.99969,-4.1088 13.33528,-4.77321 -0.36123,-0.36122 -8.54381,-1.24217 -9.41695,-1.01384 -0.45477,0.11892 -0.88709,0.0742 -0.96071,-0.0993 -0.0736,-0.17354 -9.33289,-1.27089 -20.576146,-2.43857 -30.420515,-3.15934 -28.339357,-2.85519 -20.442278,-2.98763 15.582583,-0.26133 22.383502,-0.65305 22.598425,-1.30161 0.125471,-0.37863 0.0072,-0.50074 -0.300737,-0.31045 -0.279162,0.17254 -0.507567,0.12371 -0.507567,-0.1085 0,-0.23221 -5.65709,-1.79801 -12.571312,-3.47956 -6.914221,-1.68154 -12.491097,-3.13756 -12.393058,-3.2356 0.199627,-0.19963 0.730484,-0.11803 31.660123,4.8669 12.20776,1.96752 22.25575,3.5175 22.32886,3.44439 0.0731,-0.0731 -3.72778,-4.67533 -8.44643,-10.22716 C 88.553121,82.033421 84.090028,76.723961 84.248105,76.565885 c 0.09559,-0.09559 6.691684,6.220647 14.65798,14.036089 9.889005,9.701746 14.630235,14.063836 14.944555,13.749516 0.55562,-0.55562 0.82455,-0.0649 -6.29026,-11.476701 -3.05452,-4.899279 -5.4507,-9.010751 -5.32485,-9.136603 0.17932,-0.179316 15.07112,18.664554 22.55982,28.546874 1.52605,2.01383 2.47105,2.32127 2.47105,0.80394 0,-0.56629 -1.9355,-7.28866 -4.30112,-14.938591 -7.38154,-23.870454 -13.2214,-43.272062 -13.20731,-43.878261 0.0163,-0.700028 0.12118,-0.464486 12.14676,27.273613 5.24935,12.108119 10.35797,23.884899 11.35248,26.170609 0.99451,2.28572 1.95633,4.15585 2.13737,4.15585 0.18105,0 0.46697,-0.8156 0.63538,-1.81245 0.16842,-0.99685 0.57161,-2.36154 0.89599,-3.03264 0.32437,-0.67111 2.66954,-8.139362 5.21148,-16.596115 2.54195,-8.456751 4.70032,-15.297317 4.79637,-15.201256 0.12921,0.129202 -5.22222,25.165791 -8.62436,40.349031 -0.0969,0.43243 0.0576,0.78572 0.34336,0.78507 0.28575,-4.5e-4 5.57395,-4.67906 11.75156,-10.3965 17.65654,-16.341292 29.45652,-27.013786 29.65176,-26.81854 0.0986,0.0986 -6.20573,7.552244 -14.00962,16.563655 -18.10743,20.909245 -17.47161,20.125995 -16.84578,20.751825 0.37951,0.37951 2.00598,-0.21106 6.3833,-2.31777 3.23072,-1.55488 5.97826,-2.72281 6.10567,-2.59541 0.12739,0.1274 -3.61693,3.03169 -8.32072,6.45398 -4.7038,3.42229 -8.55872,6.37397 -8.56649,6.5593 -0.008,0.18533 3.27124,0.33749 7.28669,0.33815 4.01544,4.4e-4 11.44542,0.14055 16.51107,0.31091 l 9.21025,0.30973 -15.72483,1.46133 c -8.64865,0.80373 -16.07863,1.47252 -16.51107,1.48621 -0.43243,0.0137 -0.78624,0.19207 -0.78624,0.39642 0,0.20434 5.68131,4.70277 12.62512,9.9965 14.6985,11.20564 14.65878,11.1744 14.22254,11.18745 -0.1836,0.005 -4.06595,-1.85284 -8.62744,-4.12963 -4.56149,-2.27679 -8.4029,-4.03034 -8.53647,-3.89676 -0.33139,0.33138 1.04817,3.09775 6.89864,13.83343 2.74747,5.04167 4.92561,9.23647 4.84029,9.32178 -0.0853,0.0853 -5.19304,-6.25255 -11.3505,-14.08416 -6.15746,-7.8316 -11.9528,-15.05716 -12.87854,-16.05681 l -1.68316,-1.81753 0.23196,4.71327 c 0.12758,2.5923 0.33201,5.52197 0.4543,6.51039 0.12229,0.98842 0.31636,3.91998 0.43128,6.51457 0.11492,2.5946 0.72953,12.67559 1.36581,22.4022 0.63628,9.7266 1.09525,18.09438 1.01992,18.59505 -0.0753,0.50067 -1.73542,-8.67052 -3.68909,-20.38043 l 0,0 z"
     id="path3933"
     inkscape:connector-curvature="0" />
  <path
     style="opacity:0.6504425;fill:#000000;fill-opacity:1;stroke:#006600;stroke-width:0;stroke-linecap:round;stroke-linejoin:round;stroke-miterlimit:4;stroke-opacity:1;stroke-dasharray:none"
     d=""
     id="path3935"
     inkscape:connector-curvature="0" />
  <path
     style="opacity:0.6504425;fill:#000000;fill-opacity:1;stroke:#006600;stroke-width:0;stroke-linecap:round;stroke-linejoin:round;stroke-miterlimit:4;stroke-opacity:1;stroke-dasharray:none"
     d=""
     id="path3937"
     inkscape:connector-curvature="0" />
  <path
     style="opacity:0.6504425;fill:#000000;fill-opacity:1;stroke:#006600;stroke-width:0;stroke-linecap:round;stroke-linejoin:round;stroke-miterlimit:4;stroke-opacity:1;stroke-dasharray:none"
     d=""
     id="path3939"
     inkscape:connector-curvature="0" />
  <path
     style="opacity:0.6504425;fill:#000000;fill-opacity:1;stroke:#006600;stroke-width:0;stroke-linecap:round;stroke-linejoin:round;stroke-miterlimit:4;stroke-opacity:1;stroke-dasharray:none"
     d=""
     id="path3941"
     inkscape:connector-curvature="0" />
</svg>
