<?xml version="1.0" encoding="UTF-8" standalone="no"?>
<!-- Created with Inkscape (http://www.inkscape.org/) -->

<svg
   xmlns:dc="http://purl.org/dc/elements/1.1/"
   xmlns:cc="http://creativecommons.org/ns#"
   xmlns:rdf="http://www.w3.org/1999/02/22-rdf-syntax-ns#"
   xmlns:svg="http://www.w3.org/2000/svg"
   xmlns="http://www.w3.org/2000/svg"
   xmlns:sodipodi="http://sodipodi.sourceforge.net/DTD/sodipodi-0.dtd"
   xmlns:inkscape="http://www.inkscape.org/namespaces/inkscape"
   width="311.81"
   height="442.91339"
   id="svg4581"
   version="1.1"
   inkscape:version="0.48.5 r10040"
   sodipodi:docname="tree10.svg"
   inkscape:export-filename="C:\Users\gks5055\campus-base-map.tm2-master\campus-base-map.tm2\tree10.png"
   inkscape:export-xdpi="4.6039248"
   inkscape:export-ydpi="4.6039248">
  <defs
     id="defs4583">
    <inkscape:path-effect
       effect="spiro"
       id="path-effect5125"
       is_visible="true" />
    <filter
       x="-0.15000001"
       width="1.3"
       y="-0.15000001"
       height="1.3"
       inkscape:menu="Textures"
       inkscape:menu-tooltip="Stone wall texture to use with not too saturated colors"
       inkscape:label="Stone wall"
       color-interpolation-filters="sRGB"
       id="filter3202">
      <feGaussianBlur
         result="result8"
         stdDeviation="7"
         id="feGaussianBlur3204" />
      <feComposite
         in="result8"
         operator="xor"
         result="result6"
         in2="result8"
         id="feComposite3206" />
      <feDisplacementMap
         result="result4"
         scale="75"
         yChannelSelector="A"
         xChannelSelector="A"
         in2="result6"
         in="result6"
         id="feDisplacementMap3208" />
      <feComposite
         k1="1"
         in="SourceGraphic"
         operator="arithmetic"
         result="result2"
         in2="result4"
         id="feComposite3210"
         k2="0"
         k3="0"
         k4="0" />
      <feComposite
         in2="result2"
         operator="in"
         in="result8"
         result="fbSourceGraphic"
         id="feComposite3212" />
      <feColorMatrix
         result="fbSourceGraphicAlpha"
         in="fbSourceGraphic"
         values="0 0 0 -1 0 0 0 0 -1 0 0 0 0 -1 0 0 0 0 1 0"
         id="feColorMatrix3214" />
      <feTurbulence
         id="feTurbulence3216"
         seed="10"
         baseFrequency="0.12 0.02"
         numOctaves="10"
         type="fractalNoise" />
      <feColorMatrix
         id="feColorMatrix3218"
         values="1 0 0 0 0 0 1 0 0 0 0 0 1 0 0 0 0 0 0.7 0 "
         result="result5" />
      <feComposite
         id="feComposite3220"
         in2="result5"
         operator="out"
         in="fbSourceGraphic" />
      <feMorphology
         id="feMorphology3222"
         result="result3"
         radius="1.3"
         operator="dilate" />
      <feTurbulence
         id="feTurbulence3224"
         seed="25"
         type="turbulence"
         baseFrequency="0.08 0.05"
         numOctaves="8"
         result="result91" />
      <feDisplacementMap
         id="feDisplacementMap3226"
         in2="result91"
         result="result4"
         scale="5"
         yChannelSelector="G"
         xChannelSelector="R"
         in="result3" />
      <feSpecularLighting
         id="feSpecularLighting3228"
         specularExponent="35"
         specularConstant="1"
         surfaceScale="2"
         lighting-color="#ffffff"
         result="result1"
         in="result4">
        <feDistantLight
           id="feDistantLight3230"
           azimuth="235"
           elevation="75" />
      </feSpecularLighting>
      <feComposite
         id="feComposite3232"
         in2="result4"
         operator="in"
         result="result2"
         in="result1" />
      <feComposite
         id="feComposite3234"
         in2="result2"
         k3="1"
         k2="1"
         operator="arithmetic"
         result="result4"
         in="result4"
         k1="0"
         k4="0" />
      <feBlend
         id="feBlend3236"
         in2="result4"
         mode="multiply"
         result="fbSourceGraphic" />
      <feColorMatrix
         result="fbSourceGraphicAlpha"
         in="fbSourceGraphic"
         values="0 0 0 -1 0 0 0 0 -1 0 0 0 0 -1 0 0 0 0 1 0"
         id="feColorMatrix3238" />
      <feTurbulence
         id="feTurbulence3240"
         type="turbulence"
         numOctaves="5"
         baseFrequency="0.08 0.175"
         seed="25" />
      <feColorMatrix
         id="feColorMatrix3242"
         result="result5"
         values="1 0 0 0 0 0 1 0 0 0 0 0 1 0 0 0 0 0 2 0 " />
      <feComposite
         id="feComposite3244"
         in2="result5"
         in="fbSourceGraphic"
         operator="in" />
      <feMorphology
         id="feMorphology3246"
         operator="dilate"
         radius="0.65"
         result="result3" />
      <feTurbulence
         id="feTurbulence3248"
         numOctaves="7"
         baseFrequency="0.05 0.09"
         type="fractalNoise"
         seed="25" />
      <feGaussianBlur
         id="feGaussianBlur3250"
         stdDeviation="2"
         result="result7" />
      <feDisplacementMap
         id="feDisplacementMap3252"
         in2="result7"
         in="result3"
         xChannelSelector="R"
         yChannelSelector="G"
         scale="5"
         result="result4" />
      <feFlood
         id="feFlood3254"
         flood-opacity="1"
         flood-color="rgb(255,255,255)"
         result="result92" />
      <feComposite
         id="feComposite3256"
         in2="result4"
         k3="0.7"
         k1="0.7"
         result="result2"
         operator="arithmetic"
         k2="0"
         k4="0" />
      <feComposite
         id="feComposite3258"
         in2="fbSourceGraphicAlpha"
         k2="1"
         in="result2"
         operator="arithmetic"
         k1="1"
         result="result6"
         k3="0"
         k4="0" />
      <feBlend
         id="feBlend3260"
         in2="result6"
         mode="multiply"
         in="result6" />
    </filter>
  </defs>
  <sodipodi:namedview
     id="base"
     pagecolor="#ffffff"
     bordercolor="#666666"
     borderopacity="1.0"
     inkscape:pageopacity="0.0"
     inkscape:pageshadow="2"
     inkscape:zoom="0.65637099"
     inkscape:cx="420.13212"
     inkscape:cy="474.45973"
     inkscape:document-units="px"
     inkscape:current-layer="layer1"
     showgrid="false"
     inkscape:window-width="1319"
     inkscape:window-height="942"
     inkscape:window-x="160"
     inkscape:window-y="0"
     inkscape:window-maximized="0"
     width="311.81px" />
  <metadata
     id="metadata4586">
    <rdf:RDF>
      <cc:Work
         rdf:about="">
        <dc:format>image/svg+xml</dc:format>
        <dc:type
           rdf:resource="http://purl.org/dc/dcmitype/StillImage" />
        <dc:title></dc:title>
      </cc:Work>
    </rdf:RDF>
  </metadata>
  <g
     inkscape:label="Layer 1"
     inkscape:groupmode="layer"
     id="layer1"
     transform="translate(0,-609.44882)">
    <path
       style="opacity:0.83185838;fill:#008000;fill-opacity:1;stroke:#014421;stroke-width:3.60826492;stroke-miterlimit:4;stroke-opacity:1;stroke-dasharray:none"
       d=""
       id="path4599"
       inkscape:connector-curvature="0" />
    <path
       style="fill:#b3b3b3;stroke:#b3b3b3;stroke-width:1px;stroke-linecap:butt;stroke-linejoin:miter;stroke-opacity:1"
       d="m 193.02759,466.99894 c 0.0556,-0.0741 0.11115,-0.14821 0.16673,-0.22232 0.0185,-0.0556 0.0204,-0.11987 0.0556,-0.16673 0.0249,-0.0332 0.0863,-0.0224 0.11116,-0.0556 0.29684,-0.39578 -0.27617,0.0819 0.22232,-0.33348 0.15379,-0.12816 0.2117,-0.0952 0.33348,-0.2779 0.0325,-0.0487 0.0181,-0.12173 0.0556,-0.16674 0.091,-0.10921 0.27846,-0.18573 0.38905,-0.27789 0.1409,-0.11742 0.24981,-0.2697 0.38906,-0.38906 0.0507,-0.0435 0.11458,-0.0694 0.16674,-0.11116 0.0409,-0.0327 0.0676,-0.0821 0.11116,-0.11116 0.0689,-0.046 0.15038,-0.07 0.22232,-0.11116 0.058,-0.0331 0.10946,-0.0768 0.16673,-0.11116 0.17317,-0.1039 0.073,-0.003 0.2779,-0.16674 0.0818,-0.0655 0.13848,-0.15943 0.22232,-0.22231 0.0663,-0.0497 0.15338,-0.0652 0.22232,-0.11116 0.0218,-0.0145 0.0321,-0.0439 0.0556,-0.0556 0.0524,-0.0262 0.1165,-0.0254 0.16674,-0.0556 0.0449,-0.027 0.0662,-0.0842 0.11115,-0.11116 0.10048,-0.0603 0.22868,-0.0588 0.33348,-0.11116 0.0234,-0.0117 0.0338,-0.0411 0.0556,-0.0556 0.0689,-0.046 0.15127,-0.0685 0.22232,-0.11116 0.0573,-0.0344 0.1133,-0.0711 0.16674,-0.11116 0.11116,-0.0834 0,-0.0556 0.16674,-0.16673 0.0154,-0.0103 0.0402,0.0103 0.0556,0 0.0641,-0.0428 0.1026,-0.12399 0.16673,-0.16674 0.0345,-0.023 0.0767,-0.0326 0.11116,-0.0556 0.0218,-0.0145 0.0338,-0.041 0.0556,-0.0556 0.0484,-0.0323 0.17391,-0.0789 0.22232,-0.11116 0.0218,-0.0145 0.037,-0.0371 0.0556,-0.0556 0.037,-0.0371 0.0741,-0.0741 0.11116,-0.11116 0.0185,-0.0185 0.0321,-0.0439 0.0556,-0.0556 0.0166,-0.008 0.0402,0.0103 0.0556,0 0.32225,-0.21484 0.0412,-0.0267 0.11116,-0.16674 0.0117,-0.0234 0.037,-0.0371 0.0556,-0.0556 0.0185,-0.0185 0.0338,-0.041 0.0556,-0.0556 0.0345,-0.023 0.0819,-0.0263 0.11115,-0.0556 0.0131,-0.0131 -0.008,-0.039 0,-0.0556 0.0229,-0.0457 0.19492,-0.18121 0.22232,-0.22231 0.0103,-0.0154 -0.0131,-0.0425 0,-0.0556 0.0293,-0.0293 0.0819,-0.0263 0.11116,-0.0556 0.0293,-0.0293 0.0263,-0.0819 0.0556,-0.11116 0.0293,-0.0293 0.0819,-0.0263 0.11116,-0.0556 0.13617,-0.27234 -0.0182,-0.0465 0.11116,-0.11116 0.0637,-0.0319 0.0773,-0.11597 0.11116,-0.16674 0.0291,-0.0436 0.0877,-0.0643 0.11116,-0.11116 0.008,-0.0166 -0.0131,-0.0425 0,-0.0556 0.0293,-0.0293 0.0819,-0.0263 0.11116,-0.0556 0.004,-0.004 0.10425,-0.21196 0.11116,-0.22231 0.0145,-0.0218 0.041,-0.0338 0.0556,-0.0556 0.023,-0.0345 0.0307,-0.078 0.0556,-0.11116 0.0314,-0.0419 0.0821,-0.0676 0.11116,-0.11116 0.0103,-0.0154 -0.0131,-0.0425 0,-0.0556 0.0293,-0.0293 0.0819,-0.0263 0.11116,-0.0556 0.0293,-0.0293 0.0326,-0.0767 0.0556,-0.11116 0.0291,-0.0436 0.0877,-0.0643 0.11116,-0.11116 0.008,-0.0166 -0.0131,-0.0425 0,-0.0556 0.0131,-0.0131 0.0425,0.0131 0.0556,0 0.0293,-0.0293 0.0326,-0.0767 0.0556,-0.11116 0.0145,-0.0218 0.041,-0.0338 0.0556,-0.0556 0.023,-0.0345 0.0185,-0.0926 0.0556,-0.11116 0.0497,-0.0248 0.12227,0.0334 0.16674,0 0.0469,-0.0351 0.0294,-0.11433 0.0556,-0.16673 0.0117,-0.0234 0.0439,-0.0322 0.0556,-0.0556 0.008,-0.0166 -0.0166,-0.0473 0,-0.0556 0.0331,-0.0166 0.0803,0.0205 0.11116,0 0.0345,-0.023 0.0263,-0.0819 0.0556,-0.11116 0.0131,-0.0131 0.0425,0.0131 0.0556,0 0.0638,-0.0638 0.0474,-0.15854 0.11116,-0.22232 0.0131,-0.0131 0.0425,0.0131 0.0556,0 0.0131,-0.0131 -0.0131,-0.0425 0,-0.0556 0.0293,-0.0293 0.0819,-0.0263 0.11116,-0.0556 0.13499,-0.13499 -0.0165,-0.0816 0.11116,-0.16674 0.0103,-0.007 0.21876,-0.1076 0.22232,-0.11116 0.0293,-0.0293 0.0263,-0.0819 0.0556,-0.11116 0.0472,-0.0472 0.1133,-0.0711 0.16674,-0.11116 0.0331,-0.0248 0.21618,-0.21311 0.22231,-0.22231 0.046,-0.0689 0.0615,-0.15604 0.11116,-0.22232 0.0111,-0.0148 0.0425,0.0131 0.0556,0 0.0293,-0.0293 0.0263,-0.0819 0.0556,-0.11116 0.0293,-0.0293 0.0819,-0.0263 0.11116,-0.0556 0.0293,-0.0293 0.0263,-0.0819 0.0556,-0.11116 0.0131,-0.0131 0.0425,0.0131 0.0556,0 0.0472,-0.0472 0.0639,-0.1195 0.11116,-0.16674 0.0293,-0.0293 0.0819,-0.0263 0.11116,-0.0556 0.0131,-0.0131 -0.008,-0.039 0,-0.0556 0.0299,-0.0597 0.0639,-0.1195 0.11116,-0.16673 0.0131,-0.0131 0.0402,0.0103 0.0556,0 0.0436,-0.0291 0.0702,-0.0784 0.11116,-0.11116 0.0522,-0.0417 0.1195,-0.0639 0.16673,-0.11116 0.0293,-0.0293 0.0224,-0.0863 0.0556,-0.11116 0.49377,-0.16459 0.0689,0.0356 0.16674,-0.11116 0.0581,-0.0872 0.15944,-0.13848 0.22232,-0.22232 0.12173,-0.1623 -0.0277,-0.0765 0.16674,-0.22232 0.0541,-0.0406 0.13274,-0.0432 0.16674,-0.11116 0.0185,-0.0556 0.037,-0.11115 0.0556,-0.16673 0.0185,0 0.0425,0.0131 0.0556,0 0.0586,-0.0586 0.0526,-0.16374 0.11116,-0.22232 0.0131,-0.0131 0.0425,0.0131 0.0556,0 0.0131,-0.0131 -0.0131,-0.0425 0,-0.0556 0.0131,-0.0131 0.0556,-0.0185 0.0556,0 0,0.0185 -0.037,0 -0.0556,0"
       id="path4605"
       inkscape:connector-curvature="0" />
    <path
       style="opacity:0.83185838;fill:#008000;fill-opacity:1;stroke:#b3b3b3;stroke-width:2.24610996;stroke-miterlimit:4;stroke-opacity:1;stroke-dasharray:none"
       d="m 192.70463,705.05553 c -4.56303,-3.48039 -10.27273,-9.96081 -28.97841,-32.19815 -3.40957,-4.0533 -9.97859,-18.30262 -13.73831,-27.30379 -3.75972,-9.00118 -8.76698,-18.8957 -11.12724,-21.98781 l -4.29139,-5.62203 0.66097,-22.86873 c 0.94275,-32.61799 0.58118,-30.95483 10.5701,-48.62091 l 8.87025,-15.68765 0,-14.15787 0,-14.15788 5.9737,-2.99355 c 3.28553,-1.64645 8.12157,-3.68909 10.74675,-4.53919 5.76411,-1.86658 8.78754,-4.9969 18.19744,-18.84085 8.8435,-13.01065 13.34819,-17.23912 19.39543,-18.20611 3.33184,-0.53279 5.25564,-1.75779 6.76006,-4.30458 3.69136,-6.24899 15.46924,-11.56337 32.8853,-14.83843 12.09316,-2.27409 17.41961,-3.94951 23.67151,-7.44578 7.78766,-4.3551 8.62381,-4.53557 24.13417,-5.20909 15.2438,-0.66194 16.82475,-0.49317 30.85626,3.29397 l 14.78926,3.99165 16.57855,-3.17171 c 9.11822,-1.74444 16.69484,-3.04467 16.83695,-2.88941 0.14211,0.15526 2.24777,3.67787 4.67925,7.82802 8.27561,14.12515 11.29684,16.57471 24.76183,20.07637 14.46631,3.76207 16.15074,5.37984 29.01077,27.86266 12.27289,21.45637 18.19115,37.75372 21.11281,47.15407 1.19357,3.84027 2.05773,2.13924 3.71372,11.835 0.71108,4.16336 2.67308,8.08413 4.13421,12.12236 1.46113,4.03823 3.01181,8.04867 4.67149,11.95567 1.65969,3.907 3.42839,7.71055 5.32556,11.33497 3.41252,6.51938 6.23105,13.38483 6.23105,15.27353 0,1.8887 -4.94256,13.03832 -10.98348,24.77694 l -10.98348,21.34293 -0.0538,17.37526 -0.0538,17.37527 -7.51259,4.05107 c -10.39816,5.60709 -19.53171,12.42181 -23.07564,17.21719 -1.64276,2.22287 -6.89833,8.15936 -11.67905,13.1922 -8.13577,8.56486 -9.55467,9.48967 -22.16556,14.44692 -15.04168,5.91277 -19.18531,9.41386 -21.67785,18.31636 -1.61001,5.75038 -1.87486,5.89002 -8.14458,4.29466 l -1e-5,0 -5e-5,0 c -2.07507,-0.52801 -24.25994,-1.02699 -49.2997,-1.10883 -27.33227,-0.0893 -48.06516,-0.69317 -51.87829,-1.51093 -5.20296,-1.11584 -7.17306,-2.36481 -10.8951,-6.90707 -3.31868,-4.05 -5.94595,-5.88929 -9.7451,-6.82225 -2.86081,-0.70255 -7.74815,-2.63787 -10.86076,-4.30075 -3.11261,-1.66286 -7.80256,-3.42314 -10.4221,-3.91171 -4.62617,-0.86284 -18.72739,-9.20135 -27.0011,-15.51201 m 117.53635,-117.26534 -1.27028,-6.42444 -6.38609,0.84714 c -7.55748,1.00254 -7.56788,1.00992 -6.63395,4.71185 0.92758,3.6768 6.60726,7.21319 11.65427,7.25642 l 3.90632,0.0335 -1.27027,-6.42444 0,10e-6 z"
       id="path5117"
       inkscape:connector-curvature="0"
       sodipodi:nodetypes="cssscsscccssssssssscsssssssssssscccssssscccsssssscccssccccc" />
    <path
       style="fill:none;stroke:#6c6b12;stroke-width:2.4000001;stroke-linecap:butt;stroke-linejoin:round;stroke-miterlimit:4;stroke-opacity:1;stroke-dasharray:none"
       d="m 314.4051,476.37204 c 18.31956,2.61422 38.45527,0.82271 51.77558,6.35316 32.08814,13.32265 43.93183,37.44502 51.46708,66.07797 3.38551,12.86451 9.46241,26.63955 9.94318,40.7547 l 0,0"
       id="path5127"
       inkscape:connector-curvature="0"
       sodipodi:nodetypes="csscc" />
    <path
       style="fill:none;stroke:#6c6b12;stroke-width:2.29999995;stroke-linecap:butt;stroke-linejoin:round;stroke-miterlimit:4;stroke-opacity:1;stroke-dasharray:none"
       d="m 257.81218,618.48314 c -4.31889,-4.22201 -3.66345,-10.05699 -8.91192,-17.57656 -5.83434,-8.35895 -17.2114,-18.79956 -13.77192,-31.42017 2.07979,-7.63145 13.27125,-11.14202 21.42622,-20.17239"
       id="path5129"
       inkscape:connector-curvature="0"
       sodipodi:nodetypes="cssc" />
    <path
       style="fill:none;stroke:#125812;stroke-width:4.5;stroke-linecap:butt;stroke-linejoin:round;stroke-miterlimit:4;stroke-opacity:1;stroke-dasharray:none"
       d="m 325.95332,536.56291 c 14.02437,0.78489 22.43652,2.91279 22.80172,16.84125 0.23454,8.94498 20.03475,16.22788 2.35068,41.0093"
       id="path5131"
       inkscape:connector-curvature="0"
       sodipodi:nodetypes="csc" />
    <path
       style="fill:none;stroke:#6d4a3b;stroke-width:2.4000001;stroke-linecap:butt;stroke-linejoin:miter;stroke-miterlimit:4;stroke-opacity:1;stroke-dasharray:none"
       d="m 303.08652,729.15374 c 82.02666,3.51438 115.53445,-54.42848 148.3992,-113.18584"
       id="path5133"
       inkscape:connector-curvature="0"
       sodipodi:nodetypes="cc" />
    <path
       style="fill:none;stroke:#006600;stroke-width:1px;stroke-linecap:butt;stroke-linejoin:miter;stroke-opacity:1"
       d="m 321.95082,668.78796 c 16.46751,-2.89437 25.85441,-6.00332 35.84379,-13.60907 7.27562,-5.53954 10.11191,-17.30177 15.10791,-25.73429 4.98518,-8.41427 12.13683,-13.49393 13.18694,-23.53766"
       id="path5135"
       inkscape:connector-curvature="0"
       sodipodi:nodetypes="cssc" />
    <path
       style="fill:none;stroke:#006600;stroke-width:4.4000001;stroke-linecap:butt;stroke-linejoin:round;stroke-miterlimit:4;stroke-opacity:1;stroke-dasharray:none"
       d="m 249.643,492.77583 c -12.56804,5.61688 -19.11065,14.53966 -27.96712,22.70825 -11.90354,10.97899 -26.71036,24.58017 -30.71436,41.22993 -2.72874,11.34691 2.34763,23.71149 5.86142,39.1867"
       id="path5137"
       inkscape:connector-curvature="0"
       sodipodi:nodetypes="cssc" />
    <path
       style="fill:none;stroke:#6d4a3b;stroke-width:2.0999999;stroke-linecap:butt;stroke-linejoin:miter;stroke-miterlimit:4;stroke-opacity:1;stroke-dasharray:none"
       d="m 163.49066,583.26978 c -2.24453,17.4967 -2.2603,41.07811 5.13097,60.5612 6.97636,18.38938 19.74635,25.91409 28.8975,34.782 19.35618,18.7571 38.02174,25.44054 60.29305,26.64597"
       id="path5139"
       inkscape:connector-curvature="0"
       sodipodi:nodetypes="cssc" />
    <path
       style="fill:none;stroke:#125812;stroke-width:2.5999999;stroke-linecap:round;stroke-linejoin:miter;stroke-miterlimit:4;stroke-opacity:1;stroke-dasharray:none"
       d="m 203.32998,483.1194 c 12.2182,-9.92439 21.16989,-23.99133 34.38821,-29.91523 21.56959,-9.66658 41.99627,-3.82507 67.9971,1.61946 10.77752,2.25679 26.20792,-1.09736 37.21055,3.14336"
       id="path5141"
       inkscape:connector-curvature="0"
       sodipodi:nodetypes="cssc" />
    <path
       style="opacity:0.83185838;fill:#2b1100;fill-opacity:1;stroke:#6d4a3b;stroke-width:3.01828909;stroke-linecap:round;stroke-linejoin:round;stroke-miterlimit:4;stroke-opacity:1;stroke-dasharray:none"
       d="m 302.18948,590.69965 c -2.54086,-1.44083 -4.34706,-3.48498 -4.38242,-4.95976 -0.02,-0.8335 8.77076,-2.80555 9.3945,-2.10749 0.19436,0.21753 0.74743,2.23477 1.22903,4.48277 0.73864,3.44774 0.51565,4.08128 -1.42511,4.04902 -1.26542,-0.021 -3.43262,-0.68008 -4.816,-1.46454 z"
       id="path5147"
       inkscape:connector-curvature="0" />
    <path
       style="opacity:0;fill:#550000;fill-opacity:1;stroke:#000000;stroke-width:0;stroke-linecap:round;stroke-linejoin:round;stroke-miterlimit:4;stroke-opacity:1;stroke-dasharray:none"
       id="path5159"
       d="m 166.76645,688.4656 c 2.10846,0.49424 4.2052,0.99595 6.35604,1.28324 2.06972,0.0771 4.09243,0.39288 6.135,0.70995 1.71943,0.34832 3.50325,0.14196 5.20776,0.52298 1.5418,0.34503 3.08613,0.61096 4.62799,0.95474 1.76324,0.68185 3.59309,1.08655 5.46532,1.29546 2.27302,0.0417 4.51355,0.33955 6.7671,0.61328 2.16745,0.19191 4.31525,0.32789 6.46348,0.67382 2.38138,0.36257 4.78932,0.46515 7.19374,0.52301 2.18122,0.0446 4.36326,0.0371 6.54483,0.0349 2.19776,-0.005 4.39551,1.5e-4 6.59328,-0.002 2.5387,-0.006 5.07713,0.0165 7.61579,0.0301 3.1198,0.0169 6.23964,0.0134 9.3594,-0.005 2.53953,-0.009 5.07907,-0.0138 7.61858,-0.0262 2.1326,0.008 4.26521,-0.008 6.39777,-0.0158 1.74094,-0.007 3.48188,-0.008 5.22283,-0.009 1.67742,-5.3e-4 3.35483,-3.6e-4 5.03225,-3.1e-4 1.87852,0.0113 3.75701,0.0127 5.63557,0.009 2.06606,0.0874 4.09468,0.008 6.13646,-0.29349 1.92077,-0.31097 3.86018,-0.45199 5.8024,-0.5243 1.718,-0.45592 3.49335,-0.5769 5.23322,-0.90125 2.46274,-0.4591 4.97127,-0.60333 7.46884,-0.73059 2.34297,-0.1027 4.68886,-0.0662 7.03326,-0.067 2.85913,0.0335 5.71839,0.009 8.57757,0.0311 2.66889,-0.007 5.33781,-0.0154 8.00667,-0.0304 2.05329,0.19415 4.01692,-0.18476 6.0294,-0.47649 2.08104,-0.21813 4.14898,-0.33273 6.21825,-0.65281 2.41861,-0.31519 4.8106,-1.05016 7.10022,-1.89204 1.94051,-1.10121 4.13163,-1.49902 6.18869,-2.30955 0.36511,-0.12966 0.72487,-0.2757 1.09533,-0.38898 1.38025,-0.42205 0.95431,-0.14056 2.23225,-0.71693 0.94404,-0.42577 1.8299,-0.91329 2.79755,-1.29298 2.07472,-0.40863 3.83676,-1.59004 5.68261,-2.53553 -3.18444,1.83345 -12.7278,7.35118 -9.55332,5.50038 3.82662,-2.231 7.67018,-4.43248 11.50967,-6.64098 0.33062,-0.19019 1.33047,-0.74646 1.00058,-0.55498 -3.16923,1.83954 -12.73787,7.24919 -9.5188,5.49928 25.10462,-13.64714 6.43795,-3.95478 12.64072,-7.16928 -25.03839,14.44771 1.2707,-0.79044 1.92142,-1.15907 0.62278,-0.35277 1.32445,-0.54675 1.95735,-0.88079 0.64735,-0.34165 1.26992,-0.72878 1.90597,-1.09121 0.34758,-0.17156 0.69943,-0.33463 1.04274,-0.51465 2.45787,-1.36723 -0.42571,0.21062 2.01542,-1.04504 0.3214,-0.16532 1.26286,-0.70394 0.95012,-0.52262 -11.19969,6.49378 -12.62894,7.36481 -8.58266,4.92438 0.69449,-0.40054 1.33842,-0.88461 2.03024,-1.28942 38.14004,-22.31708 -24.49823,14.18472 13.58875,-7.95021 0.33934,-0.19723 0.6816,-0.38931 1.02239,-0.58396 -0.65493,0.46292 2.63001,-1.3988 1.98568,-1.02479 -3.19105,1.85228 -12.76547,7.4067 -9.58682,5.53299 3.79355,-2.23617 7.64512,-4.37212 11.43157,-6.62042 3.2228,-1.91363 -6.48046,3.76759 -9.74053,5.61631 -0.29567,0.16767 0.56322,-0.38114 0.84482,-0.5717 1.65073,-1.14007 3.20013,-2.41838 4.79343,-3.63574 1.32812,-1.13449 2.74059,-2.15525 4.09181,-3.26201 1.52385,-1.28884 3.02261,-2.59305 4.41243,-4.02896 1.47133,-1.29346 2.69899,-2.82398 4.08154,-4.20399 1.38683,-1.25521 2.71059,-2.57645 3.94116,-3.98678 1.2007,-1.38581 2.34218,-2.81769 3.55815,-4.18972 1.19129,-1.57981 2.16242,-3.3188 3.14421,-5.0351 1.05484,-1.61178 2.17527,-3.17654 3.22895,-4.79005 1.09445,-1.76588 2.34885,-3.42589 3.46958,-5.17333 0.74614,-1.32498 1.67951,-2.52258 2.50111,-3.79792 1.09866,-1.46354 2.17379,-2.93977 3.22039,-4.44201 0.97171,-1.47758 2.01807,-2.90207 3.05724,-4.33171 0.90922,-1.34938 1.94905,-2.59121 3.00521,-3.82325 1.27613,-1.28817 2.12531,-2.85491 2.88444,-4.48416 1.1148,-2.09677 2.52053,-4.01788 3.80422,-6.01042 1.08853,-1.99048 2.04113,-4.05271 3.03864,-6.09024 1.09192,-2.15691 2.06436,-4.37166 3.00924,-6.5967 0.83571,-1.96013 1.79455,-3.86308 2.68008,-5.80037 0.75046,-1.72879 1.63042,-3.39331 2.50743,-5.0591 0.79065,-1.55436 1.59382,-3.09704 2.49139,-4.59166 0.77809,-1.26137 1.32736,-2.6411 2.15139,-3.87553 0.68394,-1.05107 1.22762,-2.1823 1.8559,-3.26466 0.60413,-1.27376 1.22203,-2.53755 1.86016,-3.79444 0.65079,-1.58837 1.5538,-3.03802 2.3971,-4.5251 1.00265,-1.53756 1.8268,-3.17771 2.73286,-4.77219 0.94514,-1.63711 1.7175,-3.36933 2.51043,-5.08469 0.92648,-1.78268 1.89323,-3.53693 2.71296,-5.37254 0.85909,-1.75073 1.58119,-3.56548 2.31846,-5.37055 0.47712,-1.69637 1.24694,-3.27245 2.03059,-4.84139 0.53342,-1.22062 0.97503,-2.48074 1.44445,-3.72808 0,0 11.22243,-5.28548 11.22243,-5.28548 l 0,0 c -0.4111,1.32332 -1.03658,2.55365 -1.42669,3.88553 -0.72814,1.55784 -1.67104,3.04046 -2.05489,4.73556 -0.66484,1.86028 -1.56711,3.63062 -2.31539,5.45842 -0.85845,1.82425 -1.65787,3.67145 -2.72368,5.39128 -0.82427,1.71888 -1.56813,3.46171 -2.41322,5.17208 -0.97513,1.56804 -1.7502,3.23631 -2.77458,4.77218 -0.84186,1.43884 -1.69502,2.8645 -2.38463,4.37905 -0.52329,1.33309 -1.38079,2.48897 -1.79488,3.87358 -0.58329,1.13889 -1.24263,2.22159 -1.82768,3.3549 -0.79355,1.26524 -1.6582,2.46428 -2.20083,3.87963 -0.95617,1.45218 -1.81853,2.94959 -2.5454,4.53259 -0.92568,1.63125 -1.81932,3.30137 -2.55193,5.02603 -1.01202,1.87691 -1.79332,3.88573 -2.76545,5.78863 -1.04063,2.17434 -1.81223,4.48027 -2.957,6.6057 -0.98642,2.09018 -2.05565,4.13934 -3.02409,6.23698 -1.21524,1.98045 -2.57016,3.87021 -3.7715,5.86019 -0.85406,1.61168 -1.39042,3.42772 -2.72587,4.74415 -1.03984,1.23624 -2.12051,2.40937 -3.08053,3.71051 -0.95507,1.50235 -2.13827,2.84683 -3.06421,4.36577 -1.07054,1.46481 -1.96918,3.05903 -3.22723,4.37827 -0.81647,1.27803 -1.593,2.54659 -2.51643,3.74741 -0.98874,1.85423 -2.42634,3.41702 -3.49888,5.22563 -0.98307,1.65626 -2.03552,3.27128 -3.25801,4.76077 -1.01648,1.72455 -1.97582,3.48094 -3.00675,5.19749 -1.11995,1.45106 -2.43966,2.7366 -3.54952,4.20168 -1.20354,1.4676 -2.48877,2.85894 -3.91214,4.1164 -1.45218,1.33077 -2.6376,2.88104 -4.10987,4.19207 -1.43221,1.36236 -2.72051,2.88903 -4.33816,4.05061 -1.24984,1.27219 -2.79249,2.16131 -4.07556,3.37362 -1.60531,1.23295 -3.20441,2.45868 -4.80085,3.70433 -4.95545,3.49263 6.68126,-4.67582 -12.13847,7.25495 -3.13137,1.98514 12.82986,-7.43307 9.61116,-5.5945 -3.83532,2.19078 -7.63325,4.44714 -11.46106,6.65119 -0.63726,0.36695 -1.32064,0.64896 -1.94714,1.03638 -0.34083,0.19401 -1.36074,0.78058 -1.02248,0.58206 3.14968,-1.84855 12.57385,-7.4359 9.45686,-5.53216 -36.92816,22.55431 7.75503,-5.25653 -4.09415,2.5733 -5.35296,3.3306 -10.82711,6.45052 -16.41693,9.35463 -0.96731,0.53358 -1.94585,1.00708 -2.93605,1.49383 -0.31593,0.15531 -1.24231,0.66237 -0.93923,0.48308 1.57262,-0.93033 26.86109,-15.66841 -1.92528,1.11266 -0.35817,0.18415 -1.42081,0.75826 -1.07451,0.55243 3.13795,-1.86511 12.62848,-7.32789 9.45122,-5.5313 -3.85736,2.18114 -7.65634,4.46504 -11.49167,6.68508 -9.71343,5.62253 35.24874,-20.63612 -2.96092,1.67755 -1.85223,1.0252 -3.78833,1.83344 -5.80157,2.48287 -2.00032,0.88868 -4.02112,1.66937 -6.11064,2.32557 -2.0836,0.73151 -4.19697,1.35843 -6.2119,2.27788 -2.37321,0.72403 -4.7563,1.46889 -7.23527,1.71816 -2.08315,0.28436 -4.18523,0.36125 -6.26227,0.69696 -2.02036,0.32456 -4.04454,0.34707 -6.08886,0.28859 -2.6397,-0.0156 -5.27943,-0.0243 -7.91915,-0.0344 -2.88088,0.0189 -5.76174,-0.0125 -8.64259,0.0187 -2.33769,0.003 -4.67615,0.0264 -7.01185,0.12999 -2.48695,0.13598 -4.96888,0.35933 -7.41154,0.87054 -1.78452,0.28953 -3.56759,0.62268 -5.36512,0.8055 -1.90739,0.10361 -3.80646,0.29535 -5.69673,0.57488 -2.08282,0.23737 -4.16823,0.1842 -6.2618,0.18761 -1.88662,-0.003 -3.7732,-0.002 -5.6598,0.009 -1.67713,7e-5 -3.35426,2.3e-4 -5.03139,-3.1e-4 -1.73291,-8.4e-4 -3.46582,-0.002 -5.19873,-0.009 -2.11819,-0.008 -4.23639,-0.0234 -6.35461,-0.0158 -2.51551,-0.0127 -5.03105,-0.0168 -7.54658,-0.0263 -3.11599,-0.0179 -6.23206,-0.021 -9.34808,-0.005 -2.56688,0.0138 -5.13355,0.0356 -7.70048,0.0325 -2.20129,2.5e-4 -4.40257,0.0103 -6.60386,0.009 -2.18746,-0.002 -4.37508,-0.005 -6.56168,-0.0767 -2.43198,-0.11458 -4.86335,-0.27719 -7.27375,-0.63534 -2.13814,-0.29332 -4.29485,-0.3521 -6.43177,-0.66102 -2.27877,-0.29362 -4.55772,-0.39723 -6.84539,-0.57729 -1.87533,-0.30824 -3.68036,-0.85335 -5.50416,-1.3784 -1.54265,-0.31601 -3.10493,-0.52465 -4.64035,-0.88026 -1.71682,-0.18025 -3.45105,-0.21326 -5.15083,-0.5503 -2.02961,-0.33403 -4.06773,-0.47711 -6.1081,-0.71865 -2.18186,-0.37522 -4.32243,-0.95894 -6.51983,-1.23856 0,0 10.22104,-7.15987 10.22104,-7.15987 z"
       inkscape:connector-curvature="0" />
    <path
       style="fill:none;stroke:#125812;stroke-width:2.29999995;stroke-linecap:butt;stroke-linejoin:round;stroke-miterlimit:4;stroke-opacity:1;stroke-dasharray:none"
       d="m 308.05042,657.13665 c -5.60051,2.26106 -24.81062,13.44756 -33.80453,15.23646 -9.99785,1.98859 -25.61432,1.52565 -35.79312,-6.69063 -6.15493,-4.96804 -19.75075,-24.06375 -24.74849,-35.1576"
       id="path5129-1"
       inkscape:connector-curvature="0"
       sodipodi:nodetypes="cssc" />
  </g>
</svg>
